<svg width="146" height="40" viewBox="0 0 146 40" fill="none" xmlns="http://www.w3.org/2000/svg">
<path d="M58.948 5.4C62.314 5.4 64.42 7.146 64.42 9.972C64.42 12.78 62.314 14.526 58.948 14.526H56.41V18H53.494V5.4H58.948ZM58.786 12.15C60.568 12.15 61.468 11.34 61.468 9.972C61.468 8.586 60.568 7.776 58.786 7.776H56.41V12.15H58.786ZM68.9858 9.594C69.6698 8.658 70.8218 8.172 72.3158 8.172V10.764C72.0818 10.746 71.9018 10.728 71.6858 10.728C70.1378 10.728 69.1118 11.574 69.1118 13.428V18H66.3038V8.316H68.9858V9.594ZM78.5056 18.144C75.4276 18.144 73.1776 16.074 73.1776 13.158C73.1776 10.242 75.4276 8.172 78.5056 8.172C81.5836 8.172 83.8156 10.242 83.8156 13.158C83.8156 16.074 81.5836 18.144 78.5056 18.144ZM78.5056 15.84C79.9096 15.84 80.9716 14.832 80.9716 13.158C80.9716 11.484 79.9096 10.476 78.5056 10.476C77.1016 10.476 76.0216 11.484 76.0216 13.158C76.0216 14.832 77.1016 15.84 78.5056 15.84ZM87.2225 6.966C86.1785 6.966 85.4765 6.282 85.4765 5.4C85.4765 4.518 86.1785 3.834 87.2225 3.834C88.2665 3.834 88.9685 4.482 88.9685 5.346C88.9685 6.282 88.2665 6.966 87.2225 6.966ZM84.9725 21.636C84.1085 21.636 83.2625 21.474 82.7225 21.096L83.4785 19.062C83.7845 19.278 84.1985 19.404 84.6665 19.404C85.3685 19.404 85.8185 18.954 85.8185 18V8.316H88.6265V17.982C88.6265 20.214 87.3125 21.636 84.9725 21.636ZM100.698 13.194C100.698 13.41 100.662 13.716 100.644 13.95H93.318C93.588 15.156 94.614 15.894 96.09 15.894C97.116 15.894 97.854 15.588 98.52 14.958L100.014 16.578C99.114 17.604 97.764 18.144 96.018 18.144C92.67 18.144 90.492 16.038 90.492 13.158C90.492 10.26 92.706 8.172 95.658 8.172C98.502 8.172 100.698 10.08 100.698 13.194ZM95.676 10.296C94.398 10.296 93.48 11.07 93.282 12.312H98.052C97.854 11.088 96.936 10.296 95.676 10.296ZM107.247 18.144C104.097 18.144 101.847 16.074 101.847 13.158C101.847 10.242 104.097 8.172 107.247 8.172C109.281 8.172 110.883 9.054 111.585 10.638L109.407 11.808C108.885 10.89 108.111 10.476 107.229 10.476C105.807 10.476 104.691 11.466 104.691 13.158C104.691 14.85 105.807 15.84 107.229 15.84C108.111 15.84 108.885 15.444 109.407 14.508L111.585 15.696C110.883 17.244 109.281 18.144 107.247 18.144ZM118.833 15.552L119.589 17.532C119.013 17.946 118.167 18.144 117.303 18.144C115.017 18.144 113.685 16.974 113.685 14.67V10.692H112.191V8.532H113.685V6.174H116.493V8.532H118.905V10.692H116.493V14.634C116.493 15.462 116.943 15.912 117.699 15.912C118.113 15.912 118.527 15.786 118.833 15.552ZM65.698 25.172C68.002 25.172 69.658 26.504 69.658 29.456V35H66.85V29.888C66.85 28.322 66.148 27.602 65.014 27.602C63.754 27.602 62.872 28.412 62.872 30.14V35H60.064V29.888C60.064 28.322 59.398 27.602 58.228 27.602C56.986 27.602 56.104 28.412 56.104 30.14V35H53.296V25.316H55.978V26.432C56.698 25.604 57.778 25.172 59.02 25.172C60.37 25.172 61.522 25.694 62.206 26.756C62.98 25.766 64.24 25.172 65.698 25.172ZM76.0809 25.172C79.0329 25.172 80.7429 26.54 80.7429 29.474V35H78.1149V33.794C77.5929 34.676 76.5849 35.144 75.1629 35.144C72.8949 35.144 71.5449 33.884 71.5449 32.21C71.5449 30.5 72.7509 29.312 75.7029 29.312H77.9349C77.9349 28.106 77.2149 27.404 75.7029 27.404C74.6769 27.404 73.6149 27.746 72.9129 28.304L71.9049 26.342C72.9669 25.586 74.5329 25.172 76.0809 25.172ZM75.8649 33.254C76.8009 33.254 77.6109 32.822 77.9349 31.94V30.95H76.0089C74.6949 30.95 74.2809 31.436 74.2809 32.084C74.2809 32.786 74.8749 33.254 75.8649 33.254ZM89.1703 25.172C91.4563 25.172 93.1843 26.504 93.1843 29.456V35H90.3763V29.888C90.3763 28.322 89.6563 27.602 88.4143 27.602C87.0643 27.602 86.0923 28.43 86.0923 30.212V35H83.2843V25.316H85.9663V26.45C86.7223 25.622 87.8563 25.172 89.1703 25.172ZM99.6356 25.172C102.588 25.172 104.298 26.54 104.298 29.474V35H101.67V33.794C101.148 34.676 100.14 35.144 98.7176 35.144C96.4496 35.144 95.0996 33.884 95.0996 32.21C95.0996 30.5 96.3056 29.312 99.2576 29.312H101.49C101.49 28.106 100.77 27.404 99.2576 27.404C98.2316 27.404 97.1696 27.746 96.4676 28.304L95.4596 26.342C96.5216 25.586 98.0876 25.172 99.6356 25.172ZM99.4196 33.254C100.356 33.254 101.166 32.822 101.49 31.94V30.95H99.5636C98.2496 30.95 97.8356 31.436 97.8356 32.084C97.8356 32.786 98.4296 33.254 99.4196 33.254ZM114.27 25.316H116.934V33.38C116.934 36.98 114.99 38.636 111.498 38.636C109.662 38.636 107.88 38.186 106.746 37.304L107.862 35.288C108.69 35.954 110.04 36.386 111.282 36.386C113.262 36.386 114.126 35.486 114.126 33.74V33.326C113.388 34.136 112.326 34.532 111.066 34.532C108.384 34.532 106.224 32.678 106.224 29.852C106.224 27.026 108.384 25.172 111.066 25.172C112.416 25.172 113.532 25.622 114.27 26.558V25.316ZM111.624 32.228C113.1 32.228 114.162 31.274 114.162 29.852C114.162 28.43 113.1 27.476 111.624 27.476C110.148 27.476 109.068 28.43 109.068 29.852C109.068 31.274 110.148 32.228 111.624 32.228ZM129.034 30.194C129.034 30.41 128.998 30.716 128.98 30.95H121.654C121.924 32.156 122.95 32.894 124.426 32.894C125.452 32.894 126.19 32.588 126.856 31.958L128.35 33.578C127.45 34.604 126.1 35.144 124.354 35.144C121.006 35.144 118.828 33.038 118.828 30.158C118.828 27.26 121.042 25.172 123.994 25.172C126.838 25.172 129.034 27.08 129.034 30.194ZM124.012 27.296C122.734 27.296 121.816 28.07 121.618 29.312H126.388C126.19 28.088 125.272 27.296 124.012 27.296ZM133.585 26.594C134.269 25.658 135.421 25.172 136.915 25.172V27.764C136.681 27.746 136.501 27.728 136.285 27.728C134.737 27.728 133.711 28.574 133.711 30.428V35H130.903V25.316H133.585V26.594Z" fill="#010066"/>
<rect width="40" height="40" rx="8" fill="#010066"/>
<path d="M11.8484 13.4C15.2144 13.4 17.3204 15.146 17.3204 17.972C17.3204 20.78 15.2144 22.526 11.8484 22.526H9.31039V26H6.39439V13.4H11.8484ZM11.6864 20.15C13.4684 20.15 14.3684 19.34 14.3684 17.972C14.3684 16.586 13.4684 15.776 11.6864 15.776H9.31039V20.15H11.6864ZM33.6042 26H30.8682L30.8502 18.44L27.1422 24.668H25.8282L22.1382 18.602V26H19.4022V13.4H21.8142L26.5302 21.23L31.1742 13.4H33.5682L33.6042 26Z" fill="#FDFDFD"/>
</svg>
